<?xml version="1.0" encoding="UTF-8" standalone="no"?>
<svg
   xmlns:dc="http://purl.org/dc/elements/1.1/"
   xmlns:cc="http://creativecommons.org/ns#"
   xmlns:rdf="http://www.w3.org/1999/02/22-rdf-syntax-ns#"
   xmlns:svg="http://www.w3.org/2000/svg"
   xmlns="http://www.w3.org/2000/svg"
   xmlns:sodipodi="http://sodipodi.sourceforge.net/DTD/sodipodi-0.dtd"
   xmlns:inkscape="http://www.inkscape.org/namespaces/inkscape"
   width="98.145538mm"
   height="88.899994mm"
   viewBox="0 0 98.145539 88.899994"
   version="1.1"
   id="svg8"
   inkscape:version="1.0.2-2 (e86c870879, 2021-01-15)"
   sodipodi:docname="sr.svg">
  <defs
     id="defs2" />
  <sodipodi:namedview
     id="base"
     pagecolor="#ffffff"
     bordercolor="#666666"
     borderopacity="1.0"
     inkscape:pageopacity="0.0"
     inkscape:pageshadow="2"
     inkscape:zoom="0.75722503"
     inkscape:cx="549.99017"
     inkscape:cy="567.76732"
     inkscape:document-units="px"
     inkscape:current-layer="layer1"
     inkscape:document-rotation="0"
     showgrid="false"
     fit-margin-top="0"
     fit-margin-left="0"
     fit-margin-right="0"
     fit-margin-bottom="0"
     inkscape:window-width="1920"
     inkscape:window-height="1017"
     inkscape:window-x="-8"
     inkscape:window-y="-8"
     inkscape:window-maximized="1" />
  <metadata
     id="metadata5">
    <rdf:RDF>
      <cc:Work
         rdf:about="">
        <dc:format>image/svg+xml</dc:format>
        <dc:type
           rdf:resource="http://purl.org/dc/dcmitype/StillImage" />
        <dc:title></dc:title>
      </cc:Work>
    </rdf:RDF>
  </metadata>
  <g
     inkscape:label="Layer 1"
     inkscape:groupmode="layer"
     id="layer1"
     transform="translate(-101.88888,-29.638568)">
    <g
       aria-label="SR"
       id="text849"
       style="font-size:101.6px;line-height:1.25;font-family:'Golden Sentry';-inkscape-font-specification:'Golden Sentry';letter-spacing:0px;word-spacing:0px;stroke-width:0.264583">
      <path
         d="m 131.55608,55.038568 v -12.7 h -12.7 v 16.967199 l 29.5656,8.4328 v 42.367203 q 0,3.4544 -2.4384,5.9944 -2.4384,2.4384 -5.9944,2.4384 h -38.1 V 93.138567 l 16.9672,-8.4328 v 21.132803 h 12.7 V 80.438567 l -29.6672,-8.4328 V 38.071368 q 0,-3.4544 2.4384,-5.8928 2.54,-2.54 5.9944,-2.54 h 38.1 v 16.9672 z"
         style="stroke-width:0.264583"
         id="path851" />
      <path
         d="m 183.16882,55.038568 v -12.7 h -12.7 v 21.132799 z m 16.8656,-16.9672 v 21.234399 l -16.0528,12.7 6.4008,17.4752 9.652,29.057603 h -16.8656 l -3.8608,-12.7 -8.8392,-23.774403 v 36.474403 h -16.9672 V 29.638568 h 38.1 q 3.556,0 5.9944,2.54 2.4384,2.4384 2.4384,5.8928 z"
         style="stroke-width:0.264583"
         id="path853" />
    </g>
  </g>
</svg>
